<?xml version="1.0" encoding="utf-8"?>
<!-- Generator: Adobe Illustrator 23.0.2, SVG Export Plug-In . SVG Version: 6.00 Build 0)  -->
<svg version="1.1" id="Слой_1" xmlns="http://www.w3.org/2000/svg" xmlns:xlink="http://www.w3.org/1999/xlink" x="0px" y="0px"
	 viewBox="0 0 100 30" style="enable-background:new 0 0 100 30;" xml:space="preserve">
<g>
	<path d="M1,25.1V6.2h2.7l6,9.5c1.4,2.2,2.5,4.2,3.4,6.1l0.1,0c-0.2-2.5-0.3-4.8-0.3-7.8V6.2h2.3v18.9h-2.5l-6-9.6
		c-1.3-2.1-2.6-4.3-3.5-6.3l-0.1,0c0.1,2.4,0.2,4.6,0.2,7.8v8.1H1z"/>
	<path d="M26.1,6.2v18.9h-2.4V6.2H26.1z"/>
	<path d="M34.6,6.2H37v9.1h0.1c0.5-0.7,1-1.4,1.5-2l5.8-7.1h3l-6.8,8l7.4,10.9H45l-6.2-9.3L37,17.9v7.2h-2.4V6.2z"/>
	<path d="M56.4,6.2v18.9h-2.4V6.2H56.4z"/>
	<path d="M64.5,22.1c1.1,0.7,2.7,1.2,4.4,1.2c2.5,0,3.9-1.3,3.9-3.2c0-1.8-1-2.8-3.6-3.8c-3.1-1.1-5-2.7-5-5.3
		c0-2.9,2.4-5.1,6.1-5.1c1.9,0,3.3,0.4,4.2,0.9l-0.7,2C73.3,8.5,72,8,70.3,8c-2.6,0-3.6,1.5-3.6,2.8c0,1.8,1.1,2.6,3.8,3.6
		c3.2,1.2,4.8,2.8,4.8,5.5c0,2.9-2.2,5.4-6.6,5.4c-1.8,0-3.8-0.5-4.8-1.2L64.5,22.1z"/>
	<path d="M99,15.5c0,6.5-3.9,9.9-8.8,9.9c-5,0-8.5-3.9-8.5-9.6c0-6,3.7-9.9,8.8-9.9C95.6,5.9,99,9.9,99,15.5z M84.3,15.8
		c0,4,2.2,7.6,6,7.6c3.9,0,6-3.6,6-7.8c0-3.8-2-7.7-6-7.7C86.3,7.9,84.3,11.6,84.3,15.8z"/>
</g>
</svg>
